# xmcd CD database file
#
# Track frame offsets:
#	150
#	20295
#	31332
#	46622
#	61212
#	92000
#	104312
#	126655
#	147842
#	160107
#
# Disc length: 2523 seconds
#
# Revision: 0
# Processed by: cddbd v1.5.2PL0 Copyright (c) Steve Scherf et al.
# Submitted via: CDex 1.51
#
DISCID=7a09d90a
DTITLE=The Buddy Collette - Chico Hamilton Sextet - Tanganyika
DYEAR=1956
DGENRE=Jazz
TTITLE0=Green dream
TTITLE1=It's you
TTITLE2=A walk on the veldt
TTITLE3=How long has this been going on
TTITLE4=The blindfold test
TTITLE5=Jungle pogo stick
TTITLE6=Tanganyika
TTITLE7=Wagnervous
TTITLE8=And so is love
TTITLE9=Coming back for more
EXTD=YEAR: 1956
EXTT0=
EXTT1=
EXTT2=
EXTT3=
EXTT4=
EXTT5=
EXTT6=
EXTT7=
EXTT8=
EXTT9=
PLAYORDER=
